# xmcd
#
# Track frame offsets: 
#        150
#        16550
#        33346
#        51726
#        67431
#        85670
#        102550
#        117631
#        135212
#        154916
#        174525
#        191047
#        207156
#
# Disc length: 2911 seconds
#
# Revision: 1
# Processed by: cddbd v1.5.2PL0 Copyright (c) Steve Scherf et al.
# Submitted via: ExactAudioCopy v1.0b1
#
DISCID=b90b5d0d
DTITLE=Death - Individual Thought Patterns: Demo and Riff Tracks (2011 R
DTITLE=emaster CD3)
DYEAR=1992
DGENRE=Death Metal
TTITLE0=Overactive Imagination (Demo)
TTITLE1=In Human Form (Demo)
TTITLE2=The Philosopher (Demo)
TTITLE3=Trapped In A Corner (Demo)
TTITLE4=Individual Thought Patterns (Demo)
TTITLE5=Jealousy (Demo)
TTITLE6=Nothing Is Everything (Demo)
TTITLE7=Destiny (Demo)
TTITLE8=Mentally Blind (Demo)
TTITLE9=Out Of Touch (Demo)
TTITLE10=In Human Form (Riffs)
TTITLE11=The Philosopher (Riffs)
TTITLE12=Trapped in a Corner (Riffs)
EXTD=
EXTT0=
EXTT1=
EXTT2=
EXTT3=
EXTT4=
EXTT5=
EXTT6=
EXTT7=
EXTT8=
EXTT9=
EXTT10=
EXTT11=
EXTT12=
PLAYORDER=
